<mxfile host="app.diagrams.net" modified="2023-12-23T16:03:15.399Z" agent="Mozilla/5.0 (Windows NT 10.0; Win64; x64) AppleWebKit/537.36 (KHTML, like Gecko) Chrome/120.0.0.0 Safari/537.36" etag="9tOaXsPdwK3Hz_5Kl972" version="22.1.11" type="github">
  <diagram name="Page-1" id="0BvVS_jWP8cE8HmBtTUd">
    <mxGraphModel dx="1900" dy="557" grid="1" gridSize="10" guides="1" tooltips="1" connect="1" arrows="1" fold="1" page="1" pageScale="1" pageWidth="850" pageHeight="1100" math="0" shadow="0">
      <root>
        <mxCell id="0" />
        <mxCell id="1" parent="0" />
        <mxCell id="HJ3b_z9Vt4lF6LXucxh--30" value="&lt;font style=&quot;font-size: 15px;&quot;&gt;&lt;u&gt;&lt;b&gt;PatientID&lt;/b&gt;&lt;/u&gt;&lt;/font&gt;" style="rounded=0;whiteSpace=wrap;html=1;" parent="1" vertex="1">
          <mxGeometry x="40" y="60" width="120" height="40" as="geometry" />
        </mxCell>
        <mxCell id="HJ3b_z9Vt4lF6LXucxh--31" value="&lt;font style=&quot;font-size: 14px;&quot;&gt;DateOfBirth&lt;/font&gt;" style="rounded=0;whiteSpace=wrap;html=1;" parent="1" vertex="1">
          <mxGeometry x="160" y="60" width="120" height="40" as="geometry" />
        </mxCell>
        <mxCell id="HJ3b_z9Vt4lF6LXucxh--32" value="ContactInfo" style="rounded=0;whiteSpace=wrap;html=1;fontSize=14;" parent="1" vertex="1">
          <mxGeometry x="280" y="60" width="120" height="40" as="geometry" />
        </mxCell>
        <mxCell id="HJ3b_z9Vt4lF6LXucxh--33" value="Name" style="rounded=0;whiteSpace=wrap;html=1;fontSize=14;" parent="1" vertex="1">
          <mxGeometry x="400" y="60" width="120" height="40" as="geometry" />
        </mxCell>
        <mxCell id="HJ3b_z9Vt4lF6LXucxh--34" value="&lt;font style=&quot;font-size: 22px;&quot;&gt;Patient&lt;/font&gt;" style="text;html=1;strokeColor=none;fillColor=none;align=center;verticalAlign=middle;whiteSpace=wrap;rounded=0;" parent="1" vertex="1">
          <mxGeometry x="-25" y="20" width="200" height="30" as="geometry" />
        </mxCell>
        <mxCell id="HJ3b_z9Vt4lF6LXucxh--35" value="&lt;font style=&quot;font-size: 14px;&quot;&gt;&lt;u&gt;&lt;b&gt;AppointmentID&lt;/b&gt;&lt;/u&gt;&lt;/font&gt;" style="rounded=0;whiteSpace=wrap;html=1;" parent="1" vertex="1">
          <mxGeometry x="50" y="200" width="120" height="40" as="geometry" />
        </mxCell>
        <mxCell id="HJ3b_z9Vt4lF6LXucxh--36" value="&lt;font style=&quot;font-size: 14px;&quot;&gt;Time&lt;/font&gt;" style="rounded=0;whiteSpace=wrap;html=1;" parent="1" vertex="1">
          <mxGeometry x="770" y="200" width="120" height="40" as="geometry" />
        </mxCell>
        <mxCell id="HJ3b_z9Vt4lF6LXucxh--37" value="&lt;font style=&quot;font-size: 14px;&quot;&gt;Date&lt;/font&gt;" style="rounded=0;whiteSpace=wrap;html=1;" parent="1" vertex="1">
          <mxGeometry x="290" y="200" width="120" height="40" as="geometry" />
        </mxCell>
        <mxCell id="HJ3b_z9Vt4lF6LXucxh--38" value="&lt;font style=&quot;font-size: 14px;&quot;&gt;Status&lt;/font&gt;" style="rounded=0;whiteSpace=wrap;html=1;" parent="1" vertex="1">
          <mxGeometry x="410" y="200" width="120" height="40" as="geometry" />
        </mxCell>
        <mxCell id="HJ3b_z9Vt4lF6LXucxh--39" value="&lt;font style=&quot;font-size: 14px;&quot;&gt;Purpose&lt;/font&gt;" style="rounded=0;whiteSpace=wrap;html=1;" parent="1" vertex="1">
          <mxGeometry x="530" y="200" width="120" height="40" as="geometry" />
        </mxCell>
        <mxCell id="HJ3b_z9Vt4lF6LXucxh--40" value="&lt;font style=&quot;font-size: 22px;&quot;&gt;Appointment&lt;/font&gt;" style="text;html=1;strokeColor=none;fillColor=none;align=center;verticalAlign=middle;whiteSpace=wrap;rounded=0;" parent="1" vertex="1">
          <mxGeometry y="170" width="200" height="30" as="geometry" />
        </mxCell>
        <mxCell id="HJ3b_z9Vt4lF6LXucxh--42" style="edgeStyle=orthogonalEdgeStyle;rounded=0;orthogonalLoop=1;jettySize=auto;html=1;exitX=0.5;exitY=0;exitDx=0;exitDy=0;entryX=0.5;entryY=1;entryDx=0;entryDy=0;" parent="1" source="HJ3b_z9Vt4lF6LXucxh--41" target="HJ3b_z9Vt4lF6LXucxh--30" edge="1">
          <mxGeometry relative="1" as="geometry">
            <Array as="points">
              <mxPoint x="710" y="130" />
              <mxPoint x="100" y="130" />
            </Array>
          </mxGeometry>
        </mxCell>
        <mxCell id="HJ3b_z9Vt4lF6LXucxh--41" value="&lt;font style=&quot;font-size: 15px;&quot;&gt;&lt;u&gt;PatientID&lt;/u&gt;&lt;/font&gt;" style="rounded=0;whiteSpace=wrap;html=1;" parent="1" vertex="1">
          <mxGeometry x="650" y="200" width="120" height="40" as="geometry" />
        </mxCell>
        <mxCell id="lvI9RK3vbRsAXs25jmpU-2" value="&lt;font style=&quot;font-size: 14px;&quot;&gt;&lt;u&gt;&lt;b&gt;DoctorId&lt;/b&gt;&lt;/u&gt;&lt;/font&gt;" style="rounded=0;whiteSpace=wrap;html=1;" vertex="1" parent="1">
          <mxGeometry x="40" y="320" width="120" height="40" as="geometry" />
        </mxCell>
        <mxCell id="lvI9RK3vbRsAXs25jmpU-6" value="&lt;font style=&quot;font-size: 18px;&quot;&gt;&lt;b&gt;Doctor&lt;/b&gt;&lt;/font&gt;" style="text;strokeColor=none;align=center;fillColor=none;html=1;verticalAlign=middle;whiteSpace=wrap;rounded=0;" vertex="1" parent="1">
          <mxGeometry x="10" y="280" width="120" height="40" as="geometry" />
        </mxCell>
        <mxCell id="lvI9RK3vbRsAXs25jmpU-10" value="&lt;font style=&quot;font-size: 14px;&quot;&gt;Name&lt;/font&gt;" style="rounded=0;whiteSpace=wrap;html=1;" vertex="1" parent="1">
          <mxGeometry x="155" y="320" width="120" height="40" as="geometry" />
        </mxCell>
        <mxCell id="lvI9RK3vbRsAXs25jmpU-11" value="&lt;font style=&quot;font-size: 14px;&quot;&gt;Specialization&lt;/font&gt;" style="rounded=0;whiteSpace=wrap;html=1;" vertex="1" parent="1">
          <mxGeometry x="275" y="320" width="120" height="40" as="geometry" />
        </mxCell>
        <mxCell id="lvI9RK3vbRsAXs25jmpU-12" value="&lt;font style=&quot;font-size: 14px;&quot;&gt;DateOfBirth&lt;/font&gt;" style="rounded=0;whiteSpace=wrap;html=1;" vertex="1" parent="1">
          <mxGeometry x="395" y="320" width="120" height="40" as="geometry" />
        </mxCell>
        <mxCell id="lvI9RK3vbRsAXs25jmpU-13" value="&lt;font style=&quot;font-size: 14px;&quot;&gt;ContactInfo&lt;/font&gt;" style="rounded=0;whiteSpace=wrap;html=1;" vertex="1" parent="1">
          <mxGeometry x="515" y="320" width="120" height="40" as="geometry" />
        </mxCell>
        <mxCell id="lvI9RK3vbRsAXs25jmpU-31" style="edgeStyle=orthogonalEdgeStyle;rounded=0;orthogonalLoop=1;jettySize=auto;html=1;" edge="1" parent="1" source="lvI9RK3vbRsAXs25jmpU-14" target="lvI9RK3vbRsAXs25jmpU-2">
          <mxGeometry relative="1" as="geometry">
            <Array as="points">
              <mxPoint x="230" y="310" />
              <mxPoint x="130" y="310" />
            </Array>
          </mxGeometry>
        </mxCell>
        <mxCell id="lvI9RK3vbRsAXs25jmpU-14" value="&lt;font style=&quot;font-size: 14px;&quot;&gt;&lt;u&gt;DoctorId&lt;/u&gt;&lt;/font&gt;" style="rounded=0;whiteSpace=wrap;html=1;" vertex="1" parent="1">
          <mxGeometry x="170" y="200" width="120" height="40" as="geometry" />
        </mxCell>
        <mxCell id="lvI9RK3vbRsAXs25jmpU-19" style="edgeStyle=orthogonalEdgeStyle;rounded=0;orthogonalLoop=1;jettySize=auto;html=1;" edge="1" parent="1" source="lvI9RK3vbRsAXs25jmpU-18" target="lvI9RK3vbRsAXs25jmpU-2">
          <mxGeometry relative="1" as="geometry">
            <Array as="points">
              <mxPoint x="590" y="160" />
              <mxPoint x="20" y="160" />
              <mxPoint x="20" y="380" />
            </Array>
          </mxGeometry>
        </mxCell>
        <mxCell id="lvI9RK3vbRsAXs25jmpU-18" value="&lt;font style=&quot;font-size: 14px;&quot;&gt;&lt;u&gt;DoctorId&lt;/u&gt;&lt;/font&gt;" style="rounded=0;whiteSpace=wrap;html=1;" vertex="1" parent="1">
          <mxGeometry x="520" y="60" width="120" height="40" as="geometry" />
        </mxCell>
        <mxCell id="lvI9RK3vbRsAXs25jmpU-21" value="&lt;font style=&quot;font-size: 14px;&quot;&gt;&lt;u&gt;&lt;b&gt;NurseID&lt;/b&gt;&lt;/u&gt;&lt;/font&gt;" style="rounded=0;whiteSpace=wrap;html=1;" vertex="1" parent="1">
          <mxGeometry x="40" y="460" width="120" height="40" as="geometry" />
        </mxCell>
        <mxCell id="lvI9RK3vbRsAXs25jmpU-22" value="&lt;font style=&quot;font-size: 24px;&quot;&gt;Nusre&lt;/font&gt;" style="text;html=1;align=center;verticalAlign=middle;resizable=0;points=[];autosize=1;strokeColor=none;fillColor=none;" vertex="1" parent="1">
          <mxGeometry x="25" y="410" width="90" height="40" as="geometry" />
        </mxCell>
        <mxCell id="lvI9RK3vbRsAXs25jmpU-26" value="&lt;font style=&quot;font-size: 14px;&quot;&gt;Specialization&lt;/font&gt;" style="rounded=0;whiteSpace=wrap;html=1;" vertex="1" parent="1">
          <mxGeometry x="160" y="460" width="130" height="40" as="geometry" />
        </mxCell>
        <mxCell id="lvI9RK3vbRsAXs25jmpU-27" value="&lt;font style=&quot;font-size: 14px;&quot;&gt;DateOfBirth&lt;/font&gt;" style="rounded=0;whiteSpace=wrap;html=1;" vertex="1" parent="1">
          <mxGeometry x="290" y="460" width="120" height="40" as="geometry" />
        </mxCell>
        <mxCell id="lvI9RK3vbRsAXs25jmpU-28" value="&lt;font style=&quot;font-size: 14px;&quot;&gt;Name&lt;/font&gt;" style="rounded=0;whiteSpace=wrap;html=1;" vertex="1" parent="1">
          <mxGeometry x="405" y="460" width="120" height="40" as="geometry" />
        </mxCell>
        <mxCell id="lvI9RK3vbRsAXs25jmpU-30" style="edgeStyle=orthogonalEdgeStyle;rounded=0;orthogonalLoop=1;jettySize=auto;html=1;" edge="1" parent="1" source="lvI9RK3vbRsAXs25jmpU-29" target="lvI9RK3vbRsAXs25jmpU-2">
          <mxGeometry relative="1" as="geometry">
            <Array as="points">
              <mxPoint x="580" y="420" />
              <mxPoint x="140" y="420" />
            </Array>
          </mxGeometry>
        </mxCell>
        <mxCell id="lvI9RK3vbRsAXs25jmpU-29" value="&lt;font style=&quot;font-size: 14px;&quot;&gt;&lt;u&gt;DoctorId&lt;/u&gt;&lt;/font&gt;" style="rounded=0;whiteSpace=wrap;html=1;" vertex="1" parent="1">
          <mxGeometry x="520" y="460" width="120" height="40" as="geometry" />
        </mxCell>
        <mxCell id="lvI9RK3vbRsAXs25jmpU-32" value="&lt;font style=&quot;font-size: 24px;&quot;&gt;Staff&lt;/font&gt;" style="text;html=1;align=center;verticalAlign=middle;resizable=0;points=[];autosize=1;strokeColor=none;fillColor=none;" vertex="1" parent="1">
          <mxGeometry x="30" y="520" width="70" height="40" as="geometry" />
        </mxCell>
        <mxCell id="lvI9RK3vbRsAXs25jmpU-33" value="&lt;font style=&quot;font-size: 14px;&quot;&gt;&lt;u&gt;&lt;b&gt;StaffID&lt;/b&gt;&lt;/u&gt;&lt;/font&gt;" style="rounded=0;whiteSpace=wrap;html=1;" vertex="1" parent="1">
          <mxGeometry x="40" y="570" width="120" height="40" as="geometry" />
        </mxCell>
        <mxCell id="lvI9RK3vbRsAXs25jmpU-35" value="&lt;font style=&quot;font-size: 14px;&quot;&gt;ContactInfo&lt;/font&gt;" style="rounded=0;whiteSpace=wrap;html=1;" vertex="1" parent="1">
          <mxGeometry x="160" y="570" width="130" height="40" as="geometry" />
        </mxCell>
        <mxCell id="lvI9RK3vbRsAXs25jmpU-36" value="&lt;font style=&quot;font-size: 14px;&quot;&gt;Name&lt;/font&gt;" style="rounded=0;whiteSpace=wrap;html=1;" vertex="1" parent="1">
          <mxGeometry x="290" y="570" width="120" height="40" as="geometry" />
        </mxCell>
        <mxCell id="lvI9RK3vbRsAXs25jmpU-37" value="&lt;font style=&quot;font-size: 14px;&quot;&gt;Role&lt;/font&gt;" style="rounded=0;whiteSpace=wrap;html=1;" vertex="1" parent="1">
          <mxGeometry x="410" y="570" width="120" height="40" as="geometry" />
        </mxCell>
        <mxCell id="lvI9RK3vbRsAXs25jmpU-38" value="&lt;font style=&quot;font-size: 24px;&quot;&gt;Room&lt;/font&gt;" style="text;html=1;align=center;verticalAlign=middle;resizable=0;points=[];autosize=1;strokeColor=none;fillColor=none;" vertex="1" parent="1">
          <mxGeometry x="25" y="630" width="90" height="40" as="geometry" />
        </mxCell>
        <mxCell id="lvI9RK3vbRsAXs25jmpU-39" value="&lt;font style=&quot;font-size: 14px;&quot;&gt;&lt;u&gt;&lt;b&gt;RoomNumber&lt;/b&gt;&lt;/u&gt;&lt;/font&gt;" style="rounded=0;whiteSpace=wrap;html=1;" vertex="1" parent="1">
          <mxGeometry x="35" y="680" width="120" height="40" as="geometry" />
        </mxCell>
        <mxCell id="lvI9RK3vbRsAXs25jmpU-40" value="&lt;font style=&quot;font-size: 14px;&quot;&gt;Capacity&lt;/font&gt;" style="rounded=0;whiteSpace=wrap;html=1;" vertex="1" parent="1">
          <mxGeometry x="155" y="680" width="130" height="40" as="geometry" />
        </mxCell>
        <mxCell id="lvI9RK3vbRsAXs25jmpU-41" value="&lt;font style=&quot;font-size: 14px;&quot;&gt;Full&lt;/font&gt;" style="rounded=0;whiteSpace=wrap;html=1;" vertex="1" parent="1">
          <mxGeometry x="285" y="680" width="130" height="40" as="geometry" />
        </mxCell>
        <mxCell id="lvI9RK3vbRsAXs25jmpU-42" value="&lt;font style=&quot;font-size: 14px;&quot;&gt;Available&lt;/font&gt;" style="rounded=0;whiteSpace=wrap;html=1;" vertex="1" parent="1">
          <mxGeometry x="415" y="680" width="130" height="40" as="geometry" />
        </mxCell>
        <mxCell id="lvI9RK3vbRsAXs25jmpU-43" value="&lt;span style=&quot;font-size: 24px;&quot;&gt;Department&lt;/span&gt;" style="text;html=1;align=center;verticalAlign=middle;resizable=0;points=[];autosize=1;strokeColor=none;fillColor=none;" vertex="1" parent="1">
          <mxGeometry x="25" y="740" width="150" height="40" as="geometry" />
        </mxCell>
        <mxCell id="lvI9RK3vbRsAXs25jmpU-44" value="&lt;font style=&quot;font-size: 24px;&quot;&gt;Trainee&lt;/font&gt;" style="text;html=1;align=center;verticalAlign=middle;resizable=0;points=[];autosize=1;strokeColor=none;fillColor=none;" vertex="1" parent="1">
          <mxGeometry x="25" y="890" width="100" height="40" as="geometry" />
        </mxCell>
        <mxCell id="lvI9RK3vbRsAXs25jmpU-45" value="&lt;font style=&quot;font-size: 14px;&quot;&gt;&lt;u&gt;&lt;b&gt;DepartmentId&lt;/b&gt;&lt;/u&gt;&lt;/font&gt;" style="rounded=0;whiteSpace=wrap;html=1;" vertex="1" parent="1">
          <mxGeometry x="35" y="790" width="120" height="40" as="geometry" />
        </mxCell>
        <mxCell id="lvI9RK3vbRsAXs25jmpU-54" style="edgeStyle=orthogonalEdgeStyle;rounded=0;orthogonalLoop=1;jettySize=auto;html=1;" edge="1" parent="1" source="lvI9RK3vbRsAXs25jmpU-47" target="lvI9RK3vbRsAXs25jmpU-2">
          <mxGeometry relative="1" as="geometry">
            <Array as="points">
              <mxPoint x="340" y="740" />
              <mxPoint x="20" y="740" />
              <mxPoint x="20" y="340" />
            </Array>
          </mxGeometry>
        </mxCell>
        <mxCell id="lvI9RK3vbRsAXs25jmpU-47" value="&lt;font style=&quot;font-size: 14px;&quot;&gt;&lt;u&gt;&lt;b&gt;DoctorId&lt;/b&gt;&lt;/u&gt;&lt;/font&gt;" style="rounded=0;whiteSpace=wrap;html=1;" vertex="1" parent="1">
          <mxGeometry x="280" y="790" width="120" height="40" as="geometry" />
        </mxCell>
        <mxCell id="lvI9RK3vbRsAXs25jmpU-51" value="" style="edgeStyle=orthogonalEdgeStyle;rounded=0;orthogonalLoop=1;jettySize=auto;html=1;entryX=0;entryY=0.5;entryDx=0;entryDy=0;" edge="1" parent="1" source="lvI9RK3vbRsAXs25jmpU-47" target="lvI9RK3vbRsAXs25jmpU-2">
          <mxGeometry relative="1" as="geometry">
            <mxPoint x="345" y="870" as="sourcePoint" />
            <mxPoint x="100" y="360" as="targetPoint" />
            <Array as="points">
              <mxPoint x="340" y="880" />
              <mxPoint x="-10" y="880" />
              <mxPoint x="-10" y="340" />
            </Array>
          </mxGeometry>
        </mxCell>
        <mxCell id="lvI9RK3vbRsAXs25jmpU-46" value="&lt;font style=&quot;font-size: 14px;&quot;&gt;DepartmentNumber&lt;/font&gt;" style="rounded=0;whiteSpace=wrap;html=1;" vertex="1" parent="1">
          <mxGeometry x="150" y="790" width="130" height="40" as="geometry" />
        </mxCell>
        <mxCell id="lvI9RK3vbRsAXs25jmpU-52" value="&lt;font style=&quot;font-size: 14px;&quot;&gt;&lt;u&gt;&lt;b&gt;TraineeID&lt;/b&gt;&lt;/u&gt;&lt;/font&gt;" style="rounded=0;whiteSpace=wrap;html=1;" vertex="1" parent="1">
          <mxGeometry x="40" y="940" width="120" height="40" as="geometry" />
        </mxCell>
        <mxCell id="lvI9RK3vbRsAXs25jmpU-53" value="&lt;font style=&quot;font-size: 14px;&quot;&gt;ContactInfo&lt;/font&gt;" style="rounded=0;whiteSpace=wrap;html=1;" vertex="1" parent="1">
          <mxGeometry x="155" y="940" width="130" height="40" as="geometry" />
        </mxCell>
        <mxCell id="lvI9RK3vbRsAXs25jmpU-55" value="&lt;font style=&quot;font-size: 14px;&quot;&gt;DateOfBirth&lt;/font&gt;" style="rounded=0;whiteSpace=wrap;html=1;" vertex="1" parent="1">
          <mxGeometry x="285" y="940" width="120" height="40" as="geometry" />
        </mxCell>
        <mxCell id="lvI9RK3vbRsAXs25jmpU-56" value="&lt;font style=&quot;font-size: 14px;&quot;&gt;Name&lt;/font&gt;" style="rounded=0;whiteSpace=wrap;html=1;" vertex="1" parent="1">
          <mxGeometry x="405" y="940" width="130" height="40" as="geometry" />
        </mxCell>
        <mxCell id="lvI9RK3vbRsAXs25jmpU-57" value="&lt;font style=&quot;font-size: 14px;&quot;&gt;University&lt;/font&gt;" style="rounded=0;whiteSpace=wrap;html=1;" vertex="1" parent="1">
          <mxGeometry x="535" y="940" width="130" height="40" as="geometry" />
        </mxCell>
        <mxCell id="lvI9RK3vbRsAXs25jmpU-58" value="&lt;font style=&quot;font-size: 14px;&quot;&gt;&lt;u&gt;&lt;b&gt;DoctorId&lt;/b&gt;&lt;/u&gt;&lt;/font&gt;" style="rounded=0;whiteSpace=wrap;html=1;" vertex="1" parent="1">
          <mxGeometry x="665" y="940" width="120" height="40" as="geometry" />
        </mxCell>
        <mxCell id="lvI9RK3vbRsAXs25jmpU-59" style="edgeStyle=orthogonalEdgeStyle;rounded=0;orthogonalLoop=1;jettySize=auto;html=1;entryX=0.173;entryY=1.025;entryDx=0;entryDy=0;entryPerimeter=0;" edge="1" parent="1" source="lvI9RK3vbRsAXs25jmpU-58" target="lvI9RK3vbRsAXs25jmpU-2">
          <mxGeometry relative="1" as="geometry">
            <Array as="points">
              <mxPoint x="725" y="1000" />
              <mxPoint x="20" y="1000" />
              <mxPoint x="20" y="361" />
            </Array>
          </mxGeometry>
        </mxCell>
        <mxCell id="lvI9RK3vbRsAXs25jmpU-61" style="edgeStyle=orthogonalEdgeStyle;rounded=0;orthogonalLoop=1;jettySize=auto;html=1;" edge="1" parent="1" source="lvI9RK3vbRsAXs25jmpU-60" target="lvI9RK3vbRsAXs25jmpU-52">
          <mxGeometry relative="1" as="geometry">
            <Array as="points">
              <mxPoint x="960" y="80" />
              <mxPoint x="960" y="910" />
              <mxPoint x="130" y="910" />
            </Array>
          </mxGeometry>
        </mxCell>
        <mxCell id="lvI9RK3vbRsAXs25jmpU-60" value="&lt;font style=&quot;font-size: 14px;&quot;&gt;&lt;u&gt;TraineeID&lt;/u&gt;&lt;/font&gt;" style="rounded=0;whiteSpace=wrap;html=1;" vertex="1" parent="1">
          <mxGeometry x="640" y="60" width="120" height="40" as="geometry" />
        </mxCell>
      </root>
    </mxGraphModel>
  </diagram>
</mxfile>
